<svg width="112" height="24" viewBox="0 0 112 24" fill="none" xmlns="http://www.w3.org/2000/svg">
<path d="M94.7481 8.62126V11.2396L103.079 9.81549L111.411 11.2396V8.62126L103.079 5.88919L94.7481 8.62126Z" fill="#D591FE"/>
<path d="M103.079 0L94.7481 4.69374V7.31214L103.079 3.92626L111.411 7.31214V4.69374L103.079 0Z" fill="#D591FE"/>
<path d="M29.1298 4.94166C27.2107 4.94155 25.5563 5.32754 24.1666 6.09962C22.8114 6.85888 21.7074 7.99738 20.9902 9.37532C20.2623 10.787 19.8983 12.4855 19.8983 14.4708C19.8983 16.4339 20.2623 18.1324 20.9902 19.5662C21.7074 20.9442 22.8114 22.0827 24.1666 22.8419C25.5562 23.6139 27.2106 24 29.1298 24C31.0267 24 32.659 23.614 34.0266 22.8419C35.3916 22.0954 36.4989 20.9535 37.2031 19.5662C37.9531 18.1325 38.328 16.434 38.328 14.4708C38.328 11.493 37.5118 9.16579 35.8794 7.48925C34.2471 5.79084 31.9972 4.94165 29.1298 4.94166ZM32.9348 19.0699C32.0083 20.1948 30.7399 20.7573 29.1298 20.7573C27.4754 20.7574 26.185 20.1949 25.2585 19.0699C24.3321 17.9449 23.8689 16.4119 23.8689 14.4708C23.8689 12.5075 24.3321 10.9745 25.2585 9.87165C26.185 8.74665 27.4754 8.18416 29.1298 8.18419C30.7401 8.18422 32.0084 8.74671 32.9348 9.87165C33.8832 10.9746 34.3575 12.5076 34.3575 14.4708C34.3575 16.4119 33.8833 17.945 32.9348 19.0699Z" fill="#F8FCFD"/>
<path d="M13.5328 5.83492C12.5401 5.23942 11.349 4.94167 9.95928 4.94166C8.52704 4.94118 7.12522 5.35483 5.92269 6.13279C5.12315 6.63019 4.43157 7.28301 3.88894 8.05256L3.77196 5.33869H-7.62939e-06V23.6029H3.93739V12.6472C4.53366 11.2799 5.21748 10.2555 5.98882 9.57381C6.9594 8.71351 8.04025 8.28337 9.23135 8.28338C10.2681 8.28338 11.1064 8.63635 11.7461 9.34228C12.4078 10.0481 12.7387 10.9966 12.7387 12.1877V23.6029H16.6761V11.956C16.676 10.5444 16.4003 9.32017 15.8488 8.28338C15.344 7.25055 14.536 6.39636 13.5328 5.83492Z" fill="#F8FCFD"/>
<path d="M90.6942 8.28342C90.1893 7.25061 89.3812 6.39645 88.378 5.83499C87.385 5.23949 86.1937 4.94174 84.8041 4.94173C83.372 4.94126 81.9703 5.35491 80.768 6.13286C79.9894 6.61721 79.3145 7.25114 78.7824 7.99799V0.380814H74.8454V23.603H78.7824V12.6472C79.3788 11.28 80.0626 10.2556 80.834 9.57392C81.8047 8.71358 82.8854 8.28342 84.0762 8.28342C85.1135 8.28349 85.9517 8.64746 86.591 9.37535C87.2529 10.0812 87.5837 11.0297 87.5836 12.2208V23.603H91.5211V11.9893C91.5211 10.5777 91.2455 9.34236 90.6942 8.28342Z" fill="#F8FCFD"/>
<path d="M64.6662 0.0447636L60.6956 2.02999V4.94166H58.2971V8.15102H60.6956V17.6803C60.6728 18.7649 60.8992 19.8402 61.3575 20.8236C61.7779 21.6837 62.4463 22.3982 63.2765 22.8751C64.1146 23.3604 65.1183 23.603 66.2876 23.603H71.6311V20.3935H67.7764C66.9159 20.3935 66.2542 20.2942 65.7913 20.0957C65.3788 19.906 65.0577 19.5612 64.8978 19.1362C64.7354 18.6684 64.657 18.1755 64.6662 17.6803V8.15102H71.6311V4.94166H64.6662V0.0447636Z" fill="#F8FCFD"/>
<path d="M54.1812 6.29738C53.4141 5.70675 52.5198 5.30324 51.5693 5.11894C50.6189 4.93465 49.6386 4.97465 48.7063 5.23577C47.3907 5.61342 46.2618 6.49165 45.3951 7.56322L45.2811 5.3388H41.5422V23.603H45.4796V17.4521C45.4805 17.3225 45.4803 17.1859 45.4796 17.0458V14.8452C45.5388 12.2661 45.9562 9.32365 48.3283 8.48402C49.3936 8.1069 50.7773 8.29063 51.5648 9.14389C52.1165 9.69527 52.3921 10.4232 52.3918 11.3276H56.3293C56.3293 9.43152 55.7218 7.49793 54.1812 6.29738Z" fill="#F8FCFD"/>
</svg>
